<svg xmlns="http://www.w3.org/2000/svg" width="375" viewBox="0 0 375 375" height="375" version="1.0"><defs><clipPath id="a"><path d="M 60.375 33.292969 L 368.625 33.292969 L 368.625 341.542969 L 60.375 341.542969 Z M 60.375 33.292969"/></clipPath></defs><g clip-path="url(#a)"><path fill="#3F72AF" d="M 126.621094 33.292969 L 368.632812 33.292969 L 368.632812 341.546875 L 60.375 341.546875 L 60.375 294.980469 C 61.179688 296.007812 61.992188 297.027344 62.808594 298.046875 L 62.808594 339.113281 L 366.191406 339.113281 L 366.191406 35.726562 L 125.207031 35.726562 C 125.671875 34.941406 126.125 34.160156 126.574219 33.371094 Z M 126.621094 33.292969" fill-rule="evenodd"/></g><g><g><g><path d="M 44.503906 -8.34375 L 41.460938 -10.375 C 38.003906 -4.433594 33.867188 -1.765625 24.660156 -1.765625 C 14.207031 -1.765625 5.714844 -9.660156 5.714844 -27.027344 C 5.714844 -44.355469 16.726562 -52.4375 24.660156 -52.4375 C 34.28125 -52.4375 38.152344 -49.917969 43.039062 -41.949219 L 45.597656 -48.867188 C 41.386719 -47.738281 39.320312 -53.902344 26.238281 -53.902344 C 11.425781 -53.902344 0.941406 -44.015625 0.941406 -26.914062 C 0.941406 -9.847656 11.578125 -0.0390625 24.660156 -0.0390625 C 33.378906 -0.0390625 40.144531 -2.59375 44.503906 -8.34375 Z M 44.503906 -8.34375" transform="translate(11.287 147.905)"/></g></g></g><g><g><g><path d="M 7.105469 -26.914062 L 36.535156 -26.914062 L 36.535156 -5.261719 C 36.535156 -0.789062 34.957031 -0.0390625 34.957031 -0.0390625 L 42.664062 -0.0390625 C 42.664062 -0.0390625 41.085938 -0.789062 41.085938 -5.261719 L 41.085938 -48.941406 C 41.085938 -53.414062 42.664062 -53.902344 42.664062 -53.902344 L 34.957031 -53.902344 C 34.957031 -53.902344 36.535156 -53.375 36.535156 -48.902344 L 36.535156 -27.777344 L 7.105469 -27.777344 L 7.105469 -48.941406 C 7.105469 -53.414062 8.644531 -53.902344 8.644531 -53.902344 L 0.941406 -53.902344 C 0.941406 -53.902344 2.519531 -53.375 2.519531 -48.902344 L 2.519531 -5.261719 C 2.519531 -0.789062 0.941406 -0.0390625 0.941406 -0.0390625 L 8.644531 -0.0390625 C 8.644531 -0.0390625 7.105469 -0.789062 7.105469 -5.261719 Z M 7.105469 -26.914062" transform="translate(67.596 147.905)"/></g></g></g><g><g><g><path d="M 34.84375 -5.261719 L 25.183594 -21.125 C 36.875 -22.289062 41.535156 -28.15625 41.535156 -37.890625 C 41.535156 -47.699219 33.078125 -53.867188 23.230469 -53.867188 C 22.140625 -53.867188 0.941406 -53.867188 0.941406 -53.867188 C 0.941406 -53.867188 2.519531 -53.113281 2.519531 -48.640625 L 2.519531 -5.035156 C 2.519531 -0.5625 0.941406 -0.0390625 0.941406 -0.0390625 L 8.644531 -0.0390625 C 8.644531 -0.0390625 7.105469 -0.527344 7.105469 -5 L 7.105469 -20.898438 C 7.105469 -20.898438 20.675781 -20.898438 20.710938 -20.898438 L 30.296875 -5.261719 C 33.003906 -0.789062 31.914062 -0.0390625 31.914062 -0.0390625 L 39.621094 -0.0390625 C 39.621094 -0.0390625 37.589844 -0.789062 34.84375 -5.261719 Z M 18.191406 -22.253906 L 7.105469 -22.253906 L 7.105469 -48.640625 C 7.105469 -50.292969 7.292969 -51.460938 7.554688 -52.210938 L 20.523438 -52.210938 C 28.230469 -52.210938 36.761719 -48.226562 36.761719 -37.777344 C 36.761719 -24.769531 28.679688 -22.253906 18.191406 -22.253906 Z M 18.191406 -22.253906" transform="translate(120.973 147.905)"/></g></g></g><g><g><g><path d="M 24.660156 -53.753906 C 11.578125 -53.753906 0.941406 -41.722656 0.941406 -26.914062 C 0.941406 -12.105469 11.578125 -0.113281 24.660156 -0.113281 C 37.738281 -0.113281 48.378906 -12.105469 48.378906 -26.914062 C 48.378906 -41.722656 37.738281 -53.753906 24.660156 -53.753906 Z M 24.660156 -1.765625 C 14.207031 -1.765625 5.714844 -13.082031 5.714844 -27.027344 C 5.714844 -40.933594 14.207031 -52.285156 24.660156 -52.285156 C 35.109375 -52.285156 43.605469 -40.933594 43.605469 -27.027344 C 43.605469 -13.082031 35.109375 -1.765625 24.660156 -1.765625 Z M 24.660156 -1.765625" transform="translate(173.222 147.905)"/></g></g></g><g><g><g><path d="M 38.226562 -6.238281 L 7.066406 -53.867188 L 0.941406 -53.867188 C 0.941406 -53.867188 2.742188 -52.738281 2.742188 -48.902344 L 2.742188 -5.261719 C 2.742188 -0.789062 1.203125 -0.0390625 1.203125 -0.0390625 L 5.1875 -0.0390625 C 5.1875 -0.0390625 3.609375 -0.789062 3.609375 -5.261719 L 3.609375 -48.941406 C 3.609375 -49.84375 3.683594 -50.59375 3.796875 -51.195312 C 4.210938 -50.59375 38.226562 -0.0390625 38.226562 -0.0390625 L 39.054688 -0.0390625 L 39.09375 -48.941406 C 39.09375 -53.414062 40.671875 -53.867188 40.671875 -53.867188 L 36.6875 -53.867188 C 36.6875 -53.867188 38.226562 -53.375 38.226562 -48.902344 Z M 38.226562 -6.238281" transform="translate(232.313 147.905)"/></g></g></g><g><g><g><path d="M 24.660156 -53.753906 C 11.578125 -53.753906 0.941406 -41.722656 0.941406 -26.914062 C 0.941406 -12.105469 11.578125 -0.113281 24.660156 -0.113281 C 37.738281 -0.113281 48.378906 -12.105469 48.378906 -26.914062 C 48.378906 -41.722656 37.738281 -53.753906 24.660156 -53.753906 Z M 24.660156 -1.765625 C 14.207031 -1.765625 5.714844 -13.082031 5.714844 -27.027344 C 5.714844 -40.933594 14.207031 -52.285156 24.660156 -52.285156 C 35.109375 -52.285156 43.605469 -40.933594 43.605469 -27.027344 C 43.605469 -13.082031 35.109375 -1.765625 24.660156 -1.765625 Z M 24.660156 -1.765625" transform="translate(283.697 147.905)"/></g></g></g><g><g><g><path d="M 27.101562 -32.550781 C 32.441406 -33.679688 36.3125 -36.648438 36.199219 -43.191406 C 36.046875 -52.398438 27.0625 -53.867188 12.628906 -53.867188 L 0.941406 -53.867188 C 0.941406 -53.867188 2.519531 -53.375 2.519531 -48.902344 L 2.519531 -5.261719 C 2.519531 -0.789062 0.941406 -0.0390625 0.941406 -0.0390625 L 23.269531 -0.0390625 C 33.078125 -0.0390625 41.535156 -6.203125 41.535156 -16.050781 C 41.535156 -25.222656 37.402344 -30.9375 27.101562 -32.550781 Z M 7.105469 -48.941406 C 7.105469 -50.59375 7.292969 -51.683594 7.554688 -52.4375 L 13.71875 -52.4375 C 25.371094 -52.4375 31.460938 -49.992188 31.425781 -43.265625 C 31.425781 -35.597656 26.875 -33.003906 20.183594 -33.003906 C 13.082031 -33.003906 9.246094 -31.988281 7.105469 -31.011719 Z M 20.5625 -1.691406 L 7.59375 -1.691406 C 7.292969 -2.441406 7.105469 -3.609375 7.105469 -5.261719 L 7.105469 -29.132812 C 8.308594 -30.410156 11.089844 -32.027344 17.554688 -32.027344 C 28.003906 -32.027344 36.761719 -29.167969 36.761719 -16.125 C 36.761719 -5.675781 28.230469 -1.691406 20.5625 -1.691406 Z M 20.5625 -1.691406" transform="translate(11.36 232.137)"/></g></g></g><g><g><g><path d="M 36.085938 -0.0390625 L 37.589844 -7.105469 C 37.589844 -7.140625 37.589844 -7.105469 37.589844 -7.105469 C 37.402344 -6.429688 35.558594 -1.503906 17.96875 -1.503906 L 7.628906 -1.503906 C 7.328125 -2.292969 7.105469 -3.496094 7.105469 -5.261719 L 7.105469 -48.941406 C 7.105469 -53.414062 8.644531 -53.902344 8.644531 -53.902344 L 0.941406 -53.902344 C 0.941406 -53.902344 2.519531 -53.375 2.519531 -48.902344 L 2.519531 -5.261719 C 2.519531 -0.789062 0.941406 -0.0390625 0.941406 -0.0390625 Z M 36.085938 -0.0390625" transform="translate(63.61 232.137)"/></g></g></g><g><g><g><path d="M 24.660156 -53.753906 C 11.578125 -53.753906 0.941406 -41.722656 0.941406 -26.914062 C 0.941406 -12.105469 11.578125 -0.113281 24.660156 -0.113281 C 37.738281 -0.113281 48.378906 -12.105469 48.378906 -26.914062 C 48.378906 -41.722656 37.738281 -53.753906 24.660156 -53.753906 Z M 24.660156 -1.765625 C 14.207031 -1.765625 5.714844 -13.082031 5.714844 -27.027344 C 5.714844 -40.933594 14.207031 -52.285156 24.660156 -52.285156 C 35.109375 -52.285156 43.605469 -40.933594 43.605469 -27.027344 C 43.605469 -13.082031 35.109375 -1.765625 24.660156 -1.765625 Z M 24.660156 -1.765625" transform="translate(111.912 232.137)"/></g></g></g><g><g><g><path d="M 44.503906 -8.34375 L 41.460938 -10.375 C 38.003906 -4.433594 33.867188 -1.765625 24.660156 -1.765625 C 14.207031 -1.765625 5.714844 -9.660156 5.714844 -27.027344 C 5.714844 -44.355469 16.726562 -52.4375 24.660156 -52.4375 C 34.28125 -52.4375 38.152344 -49.917969 43.039062 -41.949219 L 45.597656 -48.867188 C 41.386719 -47.738281 39.320312 -53.902344 26.238281 -53.902344 C 11.425781 -53.902344 0.941406 -44.015625 0.941406 -26.914062 C 0.941406 -9.847656 11.578125 -0.0390625 24.660156 -0.0390625 C 33.378906 -0.0390625 40.144531 -2.59375 44.503906 -8.34375 Z M 44.503906 -8.34375" transform="translate(171.002 232.137)"/></g></g></g><g><g><g><path d="M 44.503906 -8.34375 L 41.460938 -10.375 C 38.003906 -4.433594 33.867188 -1.765625 24.660156 -1.765625 C 14.207031 -1.765625 5.714844 -9.660156 5.714844 -27.027344 C 5.714844 -44.355469 16.726562 -52.4375 24.660156 -52.4375 C 34.28125 -52.4375 38.152344 -49.917969 43.039062 -41.949219 L 45.597656 -48.867188 C 41.386719 -47.738281 39.320312 -53.902344 26.238281 -53.902344 C 11.425781 -53.902344 0.941406 -44.015625 0.941406 -26.914062 C 0.941406 -9.847656 11.578125 -0.0390625 24.660156 -0.0390625 C 33.378906 -0.0390625 40.144531 -2.59375 44.503906 -8.34375 Z M 44.503906 -8.34375" transform="translate(227.311 232.137)"/></g></g></g><g><g><g><path d="M 24.660156 -53.753906 C 11.578125 -53.753906 0.941406 -41.722656 0.941406 -26.914062 C 0.941406 -12.105469 11.578125 -0.113281 24.660156 -0.113281 C 37.738281 -0.113281 48.378906 -12.105469 48.378906 -26.914062 C 48.378906 -41.722656 37.738281 -53.753906 24.660156 -53.753906 Z M 24.660156 -1.765625 C 14.207031 -1.765625 5.714844 -13.082031 5.714844 -27.027344 C 5.714844 -40.933594 14.207031 -52.285156 24.660156 -52.285156 C 35.109375 -52.285156 43.605469 -40.933594 43.605469 -27.027344 C 43.605469 -13.082031 35.109375 -1.765625 24.660156 -1.765625 Z M 24.660156 -1.765625" transform="translate(283.62 232.137)"/></g></g></g></svg>