<svg xmlns="http://www.w3.org/2000/svg" width="375" viewBox="0 0 375 375" height="375" version="1.0"><defs><clipPath id="a"><path d="M 184 84.089844 L 309.347656 84.089844 L 309.347656 209 L 184 209 Z M 184 84.089844"/></clipPath><clipPath id="b"><path d="M 146 215 L 223 215 L 223 291.089844 L 146 291.089844 Z M 146 215"/></clipPath><clipPath id="c"><path d="M 122.105469 154 L 174 154 L 174 207 L 122.105469 207 Z M 122.105469 154"/></clipPath></defs><g clip-path="url(#a)"><path fill="#3F72AF" d="M 221.496094 208.738281 L 272.257812 208.738281 C 292.738281 208.738281 309.339844 192.175781 309.339844 171.742188 L 309.339844 121.097656 C 309.339844 100.664062 292.738281 84.101562 272.257812 84.101562 L 221.496094 84.101562 C 201.019531 84.101562 184.417969 100.664062 184.417969 121.097656 L 184.417969 171.742188 C 184.417969 192.175781 201.019531 208.738281 221.496094 208.738281"/></g><g clip-path="url(#b)"><path fill="#DBE2EF" d="M 169.085938 291.09375 L 199.75 291.09375 C 212.121094 291.09375 222.152344 281.085938 222.152344 268.742188 L 222.152344 238.148438 C 222.152344 225.804688 212.121094 215.796875 199.75 215.796875 L 169.085938 215.796875 C 156.714844 215.796875 146.683594 225.804688 146.683594 238.148438 L 146.683594 268.742188 C 146.683594 281.085938 156.714844 291.09375 169.085938 291.09375"/></g><g clip-path="url(#c)"><path fill="#112D4E" d="M 137.273438 206.792969 L 158.40625 206.792969 C 166.933594 206.792969 173.84375 199.898438 173.84375 191.390625 L 173.84375 170.304688 C 173.84375 161.800781 166.933594 154.902344 158.40625 154.902344 L 137.273438 154.902344 C 128.746094 154.902344 121.835938 161.800781 121.835938 170.304688 L 121.835938 191.390625 C 121.835938 199.898438 128.746094 206.792969 137.273438 206.792969"/></g><g fill="#112D4E"><g><g><path d="M 4.90625 -110.75 L 34.9375 -110.75 C 43.019531 -110.75 48.882812 -108.769531 52.53125 -104.8125 C 56.1875 -100.863281 58.015625 -94.414062 58.015625 -85.46875 L 58.015625 -80.578125 C 58.015625 -70.003906 54.234375 -63.6875 46.671875 -61.625 C 51.304688 -60.414062 54.566406 -57.617188 56.453125 -53.234375 C 58.347656 -48.859375 59.296875 -43.0625 59.296875 -35.84375 C 59.296875 -24.0625 57.535156 -15.140625 54.015625 -9.078125 C 50.492188 -3.023438 44.132812 0 34.9375 0 L 4.90625 0 Z M 31.0625 -69.109375 C 32.957031 -69.109375 34.25 -69.816406 34.9375 -71.234375 C 35.625 -72.648438 35.96875 -74.644531 35.96875 -77.21875 L 35.96875 -88.3125 C 35.96875 -91.914062 34.378906 -93.71875 31.203125 -93.71875 L 26.5625 -93.71875 L 26.5625 -69.109375 Z M 28.75 -19.46875 C 34.507812 -19.46875 37.390625 -22.21875 37.390625 -27.71875 L 37.390625 -41.515625 C 37.390625 -44.867188 36.894531 -47.40625 35.90625 -49.125 C 34.914062 -50.84375 33.175781 -51.703125 30.6875 -51.703125 L 26.5625 -51.703125 L 26.5625 -19.59375 Z M 28.75 -19.46875" transform="translate(7.396 252.748)"/></g></g></g><g fill="#112D4E"><g><g><path d="M 4.90625 0 L 4.90625 -110.75 L 27.078125 -110.75 L 27.078125 -18.828125 L 49.890625 -18.828125 L 49.890625 0 Z M 4.90625 0" transform="translate(78.812 252.748)"/></g></g></g><g fill="#112D4E"><g><g><path d="M 30.6875 1.03125 C 22.601562 1.03125 16.132812 -1.503906 11.28125 -6.578125 C 6.425781 -11.648438 4 -18.609375 4 -27.453125 L 4 -78.515625 C 4 -89.515625 6.1875 -97.804688 10.5625 -103.390625 C 14.945312 -108.984375 21.828125 -111.78125 31.203125 -111.78125 C 39.367188 -111.78125 45.941406 -109.546875 50.921875 -105.078125 C 55.910156 -100.609375 58.40625 -94.160156 58.40625 -85.734375 L 58.40625 -66.65625 L 36.359375 -66.65625 L 36.359375 -83.03125 C 36.359375 -86.207031 35.96875 -88.394531 35.1875 -89.59375 C 34.414062 -90.800781 33.085938 -91.40625 31.203125 -91.40625 C 29.222656 -91.40625 27.867188 -90.71875 27.140625 -89.34375 C 26.410156 -87.96875 26.046875 -85.945312 26.046875 -83.28125 L 26.046875 -27.71875 C 26.046875 -24.789062 26.472656 -22.660156 27.328125 -21.328125 C 28.191406 -20.003906 29.484375 -19.34375 31.203125 -19.34375 C 34.640625 -19.34375 36.359375 -22.132812 36.359375 -27.71875 L 36.359375 -47.703125 L 58.65625 -47.703125 L 58.65625 -26.8125 C 58.65625 -8.25 49.332031 1.03125 30.6875 1.03125 Z M 30.6875 1.03125" transform="translate(233.47 252.748)"/></g></g></g><g fill="#112D4E"><g><g><path d="M 4.90625 0 L 4.90625 -110.75 L 26.8125 -110.75 L 26.8125 -66.390625 L 37.125 -110.75 L 59.4375 -110.75 L 47.0625 -60.078125 L 62.015625 0 L 39.0625 0 L 26.9375 -53.625 L 26.9375 0 Z M 4.90625 0" transform="translate(304.242 252.748)"/></g></g></g><g fill="#112D4E"><g><g><path d="M 11.8125 0.34375 C 5.4375 0.34375 2.25 -1.707031 2.25 -5.8125 L 2.25 -16.609375 C 2.25 -20.953125 5.4375 -23.125 11.8125 -23.125 C 13.976562 -23.125 16.054688 -22.90625 18.046875 -22.46875 L 18.046875 -19.9375 C 15.804688 -20.5 13.75 -20.78125 11.875 -20.78125 C 10.96875 -20.78125 10.175781 -20.726562 9.5 -20.625 C 8.820312 -20.519531 8.164062 -20.335938 7.53125 -20.078125 C 6.175781 -19.492188 5.5 -18.347656 5.5 -16.640625 L 5.5 -6 C 5.5 -3.375 7.671875 -2.0625 12.015625 -2.0625 C 13.890625 -2.0625 15.945312 -2.34375 18.1875 -2.90625 L 18.1875 -0.3125 C 16.195312 0.125 14.070312 0.34375 11.8125 0.34375 Z M 11.8125 0.34375" transform="translate(10.354 132.388)"/></g></g></g><g fill="#112D4E"><g><g><path d="M 2.9375 -22.75 L 6.34375 -22.75 L 6.34375 -12.9375 L 18.4375 -12.9375 L 18.4375 -22.75 L 21.828125 -22.75 L 21.828125 0 L 18.4375 0 L 18.4375 -10.546875 L 6.34375 -10.546875 L 6.34375 0 L 2.9375 0 Z M 2.9375 -22.75" transform="translate(35.379 132.388)"/></g></g></g><g fill="#112D4E"><g><g><path d="M 2.9375 -22.75 L 10.9375 -22.75 C 12.945312 -22.75 14.515625 -22.625 15.640625 -22.375 C 16.773438 -22.132812 17.601562 -21.695312 18.125 -21.0625 C 18.65625 -20.425781 18.921875 -19.503906 18.921875 -18.296875 L 18.921875 -14.375 C 18.921875 -13.019531 18.363281 -11.972656 17.25 -11.234375 C 16.144531 -10.492188 14.738281 -10.125 13.03125 -10.125 L 20.328125 0 L 16.15625 0 L 9.640625 -9.703125 L 6.34375 -9.703125 L 6.34375 0 L 2.9375 0 Z M 10.796875 -11.953125 C 12.472656 -11.953125 13.679688 -12.15625 14.421875 -12.5625 C 15.160156 -12.96875 15.53125 -13.710938 15.53125 -14.796875 L 15.53125 -17.9375 C 15.53125 -19.644531 14.054688 -20.5 11.109375 -20.5 L 6.34375 -20.5 L 6.34375 -11.953125 Z M 10.796875 -11.953125" transform="translate(65.416 132.388)"/></g></g></g><g fill="#112D4E"><g><g><path d="M 11.84375 0.34375 C 5.488281 0.34375 2.3125 -1.707031 2.3125 -5.8125 L 2.3125 -16.578125 C 2.3125 -20.921875 5.488281 -23.09375 11.84375 -23.09375 C 18.269531 -23.09375 21.484375 -20.929688 21.484375 -16.609375 L 21.484375 -5.8125 C 21.484375 -3.613281 20.59375 -2.035156 18.8125 -1.078125 C 17.039062 -0.128906 14.71875 0.34375 11.84375 0.34375 Z M 11.921875 -1.921875 C 16.097656 -1.921875 18.1875 -3.234375 18.1875 -5.859375 L 18.1875 -16.6875 C 18.1875 -19.488281 16.082031 -20.890625 11.875 -20.890625 C 9.84375 -20.890625 8.285156 -20.570312 7.203125 -19.9375 C 6.117188 -19.3125 5.578125 -18.226562 5.578125 -16.6875 L 5.578125 -5.859375 C 5.578125 -3.234375 7.691406 -1.921875 11.921875 -1.921875 Z M 11.921875 -1.921875" transform="translate(92.824 132.388)"/></g></g></g><g fill="#112D4E"><g><g><path d="M 2.9375 -22.75 L 7.046875 -22.75 L 19.421875 -3.953125 L 19.421875 -22.75 L 22.390625 -22.75 L 22.390625 0 L 18.296875 0 L 5.921875 -19.09375 L 5.921875 0 L 2.9375 0 Z M 2.9375 -22.75" transform="translate(121.88 132.388)"/></g></g></g><g fill="#112D4E"><g><g><path d="M 11.84375 0.34375 C 5.488281 0.34375 2.3125 -1.707031 2.3125 -5.8125 L 2.3125 -16.578125 C 2.3125 -20.921875 5.488281 -23.09375 11.84375 -23.09375 C 18.269531 -23.09375 21.484375 -20.929688 21.484375 -16.609375 L 21.484375 -5.8125 C 21.484375 -3.613281 20.59375 -2.035156 18.8125 -1.078125 C 17.039062 -0.128906 14.71875 0.34375 11.84375 0.34375 Z M 11.921875 -1.921875 C 16.097656 -1.921875 18.1875 -3.234375 18.1875 -5.859375 L 18.1875 -16.6875 C 18.1875 -19.488281 16.082031 -20.890625 11.875 -20.890625 C 9.84375 -20.890625 8.285156 -20.570312 7.203125 -19.9375 C 6.117188 -19.3125 5.578125 -18.226562 5.578125 -16.6875 L 5.578125 -5.859375 C 5.578125 -3.234375 7.691406 -1.921875 11.921875 -1.921875 Z M 11.921875 -1.921875" transform="translate(152.477 132.388)"/></g></g></g></svg>